HIERARCHY
ROOT hip
{
  OFFSET 0 0 0
  CHANNELS 6 Xposition Yposition Zposition Zrotation Yrotation Xrotation
  JOINT abdomen
  {
    OFFSET 0 20.6881 -0.73152
    CHANNELS 3 Zrotation Xrotation Yrotation
    JOINT chest
    {
      OFFSET 0 11.7043 -0.48768
      CHANNELS 3 Zrotation Xrotation Yrotation
      JOINT neck
      {
        OFFSET 0 22.1894 -2.19456
        CHANNELS 3 Zrotation Xrotation Yrotation
        JOINT head
        {
          OFFSET -0.24384 7.07133 1.2192
          CHANNELS 3 Zrotation Xrotation Yrotation
          JOINT leftEye
          {
            OFFSET 4.14528 8.04674 8.04672
            CHANNELS 3 Zrotation Xrotation Yrotation
            End Site
            {
              OFFSET 1 0 0
            }
          }
          JOINT rightEye
          {
            OFFSET -3.6576 8.04674 8.04672
            CHANNELS 3 Zrotation Xrotation Yrotation
            End Site
            {
              OFFSET 1 0 0
            }
          }
        }
      }
      JOINT rCollar
      {
        OFFSET -2.68224 19.2634 -4.8768
        CHANNELS 3 Zrotation Xrotation Yrotation
        JOINT rShldr
        {
          OFFSET -8.77824 -1.95073 1.46304
          CHANNELS 3 Zrotation Xrotation Yrotation
          JOINT rForeArm
          {
            OFFSET -28.1742 -1.7115 0.48768
            CHANNELS 3 Zrotation Xrotation Yrotation
            JOINT rHand
            {
              OFFSET -22.5879 0.773209 7.07136
              CHANNELS 3 Zrotation Xrotation Yrotation
              JOINT rThumb1
              {
                OFFSET -1.2192 -0.487915 3.41376
                CHANNELS 3 Zrotation Xrotation Yrotation
                JOINT rThumb2
                {
                  OFFSET -3.37035 -0.52449 3.41376
                  CHANNELS 3 Zrotation Xrotation Yrotation
                  End Site
                  {
                    OFFSET -1.78271 -1.18214 1.43049
                  }
                }
              }
              JOINT rIndex1
              {
                OFFSET -7.75947 0.938293 5.60832
                CHANNELS 3 Zrotation Xrotation Yrotation
                JOINT rIndex2
                {
                  OFFSET -2.54057 -0.884171 1.56538
                  CHANNELS 3 Zrotation Xrotation Yrotation
                  End Site
                  {
                    OFFSET -1.62519 -0.234802 1.16502
                  }
                }
              }
              JOINT rMid1
              {
                OFFSET -8.24714 1.18213 3.41376
                CHANNELS 3 Zrotation Xrotation Yrotation
                JOINT rMid2
                {
                  OFFSET -3.10165 -0.590103 1.0647
                  CHANNELS 3 Zrotation Xrotation Yrotation
                  End Site
                  {
                    OFFSET -2.48547 -0.328903 0.83742
                  }
                }
              }
              JOINT rRing1
              {
                OFFSET -8.82822 0.546677 1.51678
                CHANNELS 3 Zrotation Xrotation Yrotation
                JOINT rRing2
                {
                  OFFSET -2.60934 -0.819778 -0.0198488
                  CHANNELS 3 Zrotation Xrotation Yrotation
                  End Site
                  {
                    OFFSET -2.33842 -0.294052 0.168128
                  }
                }
              }
              JOINT rPinky1
              {
                OFFSET -8.27202 -0.0477905 -0.4584
                CHANNELS 3 Zrotation Xrotation Yrotation
                JOINT rPinky2
                {
                  OFFSET -1.82734 -0.647385 -0.700984
                  CHANNELS 3 Zrotation Xrotation Yrotation
                  End Site
                  {
                    OFFSET -1.69225 -0.51767 -0.607171
                  }
                }
              }
            }
          }
        }
      }
      JOINT lCollar
      {
        OFFSET 2.68224 19.2634 -4.8768
        CHANNELS 3 Zrotation Xrotation Yrotation
        JOINT lShldr
        {
          OFFSET 8.77824 -1.95073 1.46304
          CHANNELS 3 Zrotation Xrotation Yrotation
          JOINT lForeArm
          {
            OFFSET 28.1742 -1.7115 0.48768
            CHANNELS 3 Zrotation Xrotation Yrotation
            JOINT lHand
            {
              OFFSET 22.5879 0.773209 7.07136
              CHANNELS 3 Zrotation Xrotation Yrotation
              JOINT lThumb1
              {
                OFFSET 1.2192 -0.487915 3.41376
                CHANNELS 3 Zrotation Xrotation Yrotation
                JOINT lThumb2
                {
                  OFFSET 3.37035 -0.52449 3.41376
                  CHANNELS 3 Zrotation Xrotation Yrotation
                  End Site
                  {
                    OFFSET 1.78271 -1.18214 1.43049
                  }
                }
              }
              JOINT lIndex1
              {
                OFFSET 7.75947 0.938293 5.60832
                CHANNELS 3 Zrotation Xrotation Yrotation
                JOINT lIndex2
                {
                  OFFSET 2.54057 -0.884171 1.56538
                  CHANNELS 3 Zrotation Xrotation Yrotation
                  End Site
                  {
                    OFFSET 1.62519 -0.234802 1.16502
                  }
                }
              }
              JOINT lMid1
              {
                OFFSET 8.24714 1.18213 3.41376
                CHANNELS 3 Zrotation Xrotation Yrotation
                JOINT lMid2
                {
                  OFFSET 3.10165 -0.590103 1.0647
                  CHANNELS 3 Zrotation Xrotation Yrotation
                  End Site
                  {
                    OFFSET 2.48547 -0.328903 0.83742
                  }
                }
              }
              JOINT lRing1
              {
                OFFSET 8.82822 0.546677 1.51678
                CHANNELS 3 Zrotation Xrotation Yrotation
                JOINT lRing2
                {
                  OFFSET 2.60934 -0.819778 -0.0198488
                  CHANNELS 3 Zrotation Xrotation Yrotation
                  End Site
                  {
                    OFFSET 2.33842 -0.294052 0.168128
                  }
                }
              }
              JOINT lPinky1
              {
                OFFSET 8.27202 -0.0477905 -0.4584
                CHANNELS 3 Zrotation Xrotation Yrotation
                JOINT lPinky2
                {
                  OFFSET 1.82734 -0.647385 -0.700984
                  CHANNELS 3 Zrotation Xrotation Yrotation
                  End Site
                  {
                    OFFSET 1.69225 -0.51767 -0.607171
                  }
                }
              }
            }
          }
        }
      }
    }
  }
  JOINT rButtock
  {
    OFFSET -8.77824 4.35084 1.2192
    CHANNELS 3 Zrotation Xrotation Yrotation
    JOINT rThigh
    {
      OFFSET 0 -1.70687 -2.19456
      CHANNELS 3 Zrotation Xrotation Yrotation
      JOINT rShin
      {
        OFFSET 0 -36.8199 0.73152
        CHANNELS 3 Zrotation Xrotation Yrotation
        JOINT rFoot
        {
          OFFSET 0.73152 -45.1104 -5.12064
          CHANNELS 3 Zrotation Xrotation Yrotation
          End Site
          {
            OFFSET -1.1221 -3.69964 12.103
          }
        }
      }
    }
  }
  JOINT lButtock
  {
    OFFSET 8.77824 4.35084 1.2192
    CHANNELS 3 Zrotation Xrotation Yrotation
    JOINT lThigh
    {
      OFFSET 0 -1.70687 -2.19456
      CHANNELS 3 Zrotation Xrotation Yrotation
      JOINT lShin
      {
        OFFSET 0 -36.8199 0.73152
        CHANNELS 3 Zrotation Xrotation Yrotation
        JOINT lFoot
        {
          OFFSET -0.73152 -45.1104 -5.12064
          CHANNELS 3 Zrotation Xrotation Yrotation
          End Site
          {
            OFFSET 1.1221 -3.69964 12.103
          }
        }
      }
    }
  }
}
MOTION
Frames:	4
Frame Time:	0.03333
6.688296142965555 64.56754207611084 2.7839902439154685 -6.379101279110307 4.0333475138634745 2.4569842496541363 -2.898068474743451 14.725836624128716 3.9725473043061363 2.371152677449171 -9.975136966740429 1.4416421584207735 -4.777719885744858 15.795693550057418 -3.2215283045886833 8.177673648908607 -24.84880876658584 -4.398956867963679 -0.42529290776952455 0.11914720726387759 0.4430981703991164 0.2880647223491687 -0.4246626360556058 -0.4395673094437636 -0.4290825155005445 -0.17897251403890194 -0.3556816741415909 47.609379401994076 29.636822601183553 16.20257133400966 -24.310084425990254 -30.193185905310695 65.79558793513718 -5.188966002558149 -11.3271165638838 -5.303468574464712 -0.3401389383549922 0.25183913321914003 -0.500147325441648 0.41631801251970135 -0.5348217946194226 -0.6603347915506049 0.42809934178603287 -0.38834721392973554 -0.3845989341792795 8.056491578880596 5.724524550473434 0.08030296095866304 -0.6113366152705202 -0.36432949404362036 0.22134672750518336 3.1201486605118305 0.6052607351169708 0.685179284491409 0.17707116012869964 0.0008466766528171275 -0.3393961286023269 10.426924098259153 1.1727094362670452 0.05344591009023243 0.2209138109056809 -0.22187976240492202 -0.5595441445679598 1.4727038310535816 -1.2017679424823353 -0.04082700219650165 -0.2735678059183753 -0.00831330071525755 -0.03536965436923502 -55.5221877063997 30.984907282952726 -26.04450168268827 23.15928292820773 -28.516082473485547 -62.68853488169838 5.009829777422579 -13.855392193660414 4.350397638059473 -0.18380380565962814 -0.08255772379756061 -0.6096683949265974 -0.4016977257970246 -0.4208497896731519 -0.008100070747106215 -0.13984073277788572 0.09666893464344661 0.11028311582508198 -8.068574183522347 5.598233925833075 -0.39562515401635434 -0.2967009629461209 -0.0788798803729203 0.024362110830671888 -2.6205604500867716 1.5389068269661053 0.40550726380659924 0.26940686001208886 0.13910608723571266 0.05837389157639663 -10.049665429642669 1.1868426984853881 0.05088325513015538 0.20943350355071919 0.4717242402625803 0.23327507926144206 -2.1966490281181614 -1.0621555674743957 0.11650563160237516 0.095798205586189 -0.019407982526591233 -0.33549355594573727 -32.08068136168704 -36.28703287147188 -27.63710884429119 -5.625333128251923 62.09251891434473 5.810449610892664 -4.4217705535651675 -9.895945192182362 -10.732255752273526 0.16046398204863674 0.43864584755562014 -0.13125035583399308 37.344527155002865 -33.051760091839014 30.22689288886471 4.601495455629829 62.316077836068416 -6.033966697707685 5.132169991401731 -10.306873278312423 13.970154739642261
6.938179302960634 64.5708680152893 2.8396967332810163 -6.373804467408961 4.056825008474924 2.45493348535584 -2.912008890839447 14.71926256705258 3.9680338299252274 2.376659517467494 -9.96757680110287 1.4523961845472526 -4.77228604337329 15.810385286962116 -3.2185392430531565 8.18302339457602 -24.84614157771495 -4.413871866676871 -0.4358936815265017 0.11437728062397572 0.43648953549030595 0.28053219763340825 -0.417283577152759 -0.43654639147906105 -0.4405964001721877 -0.17479126432809053 -0.3593289951583777 47.624740497437436 29.62493807202773 16.226825335752377 -24.331527804889507 -30.21116296320617 65.8461928066978 -5.184423499873267 -11.314842713945287 -5.299168970382189 -0.3415837368078614 0.24673137901958697 -0.4849884676307451 0.40898110869063825 -0.5364482334155318 -0.673333708758197 0.4366917731227618 -0.3774623469919682 -0.3803306529174033 8.065803688040262 5.735162143218905 0.07304897989499215 -0.6209590711505988 -0.37047975922609955 0.2266801580918245 3.1176225577359835 0.6085981363001682 0.6978985908298536 0.1726022954208072 0.007135226485562579 -0.3409946063115214 10.43502641016208 1.168294145855455 0.061077259105546525 0.21953163141367893 -0.23273325316118965 -0.5664831898778696 1.4865650596438877 -1.1935217697200144 -0.046729993186685165 -0.28026053753134156 -0.009155441695578966 -0.021739851797915898 -55.56994097398184 31.02102532328375 -26.053903438080795 23.172000740442293 -28.533079399235124 -62.71432567600435 5.000314043248281 -13.868141595519889 4.3665318255395125 -0.172104331941631 -0.09486022851407584 -0.6327928541353219 -0.4124420402482778 -0.42768830313621564 0.00444490568494447 -0.16022740670734573 0.09808401110125575 0.1122741159681407 -8.084744656382354 5.607547742540033 -0.3915147675181818 -0.3184796614449413 -0.08164749436895062 0.022533541123812537 -2.625153325416782 1.5359546911407789 0.4074500257386447 0.25801367758968446 0.14235394890775951 0.06828844476519905 -10.046265702983295 1.1758187731649876 0.06442794714111379 0.21644245157791586 0.46323698316689904 0.2399022837470585 -2.1969064408725063 -1.0681061563453575 0.11668070856070963 0.08691170258917928 -0.002929617545406563 -0.33832867142067435 -32.08904492832572 -36.31501615650142 -27.659535770430928 -5.631208798485427 62.122571746692785 5.807330775762907 -4.438732047708425 -9.90467588148893 -10.727028950011173 0.1511301550218441 0.43758161870556755 -0.1343223401349121 37.349878608217566 -33.06620252683901 30.22875070031895 4.602200245774809 62.34311172480333 -6.030935374376669 5.12541920318082 -10.316463717680769 13.991447854379775
7.183412183076143 64.5789384841919 2.9035141109488904 -6.375434321299656 4.056475388166784 2.444312114309647 -2.917741553987203 14.727127529881848 3.968650681384644 2.3723981197556405 -9.97364030153855 1.4497669886036209 -4.771017762621783 15.820833768844944 -3.2222706607740994 8.184645564503898 -24.86222667321033 -4.4059783024304515 -0.4361159828396444 0.10594157011218684 0.44057057351938855 0.2744185379960121 -0.41989004137305935 -0.4300047244406284 -0.4473836872164763 -0.17780049626601005 -0.3636058675175693 47.635942007676256 29.634408129311954 16.235137675972283 -24.338846352585175 -30.223419737671758 65.85147254292623 -5.191745462663521 -11.31995767185998 -5.299574085977335 -0.34068770136612037 0.2461167153551387 -0.49582573668773394 0.41253472804974894 -0.5437863111833585 -0.6679602708721011 0.4371741018720411 -0.3884813631139028 -0.37988647717794094 8.063178334078037 5.726726005820294 0.07680051465747455 -0.6190524878768132 -0.3846853787609624 0.22647760029425132 3.1170571461387535 0.6144558772871004 0.6964298867148894 0.16535879976472936 0.010912801344255646 -0.33697920213149435 10.439256858579258 1.1692328699795085 0.05762032961187382 0.21781386551784715 -0.23883026421248382 -0.5695563481175522 1.4814509555028406 -1.1901299404668684 -0.05242514365485931 -0.28160032182572187 -0.01005553256213971 -0.026156636313386956 -55.58082488042426 31.02653045575478 -26.056918966599355 23.181808892090434 -28.542768022572787 -62.72519933716301 5.014511018324976 -13.86635293973099 4.361510782725906 -0.17631546373006118 -0.09104871615294427 -0.6272408708354535 -0.4126962513514492 -0.4351799534386618 -0.002799523786058976 -0.1493547327244639 0.09100366625289127 0.12370411737903969 -8.081998920336009 5.604263275322904 -0.3935318611183041 -0.31289555491163273 -0.0883918259266622 0.02263748806524367 -2.622808436097352 1.533331898499494 0.407949910208525 0.2612904341635716 0.13548256515931512 0.07077623444867041 -10.043940023570906 1.1859129389846201 0.0727339907803782 0.21736287292942796 0.46483620792803404 0.23201042704793187 -2.19259957971399 -1.0677174758929016 0.10966983954280887 0.08997023995516984 -0.000498176922587805 -0.33957422044884966 -32.087552531992074 -36.32558587424202 -27.66102475166999 -5.630901013085953 62.1367580495989 5.795793732481108 -4.447178003503969 -9.906975947691933 -10.738256927233028 0.15698874978242253 0.4392844702430163 -0.1384028445554658 37.35601553318682 -33.07288586694187 30.24014687094912 4.6031381161252165 62.35761904660043 -6.038601407946361 5.128307946312912 -10.308468127483621 13.98766563712688
7.43093928322196 64.58883285522461 2.96343092340976 -6.38123912832052 4.038701528399118 2.4349479249575596 -2.913178987621635 14.741129417680375 3.9704525706650577 2.3649504387959763 -9.984968170277016 1.4390687779292652 -4.773459555250063 15.821545816065916 -3.2285448298569905 8.18226951244638 -24.883246580381044 -4.384593407025965 -0.429543473228241 0.1018623463521025 0.4501006084022604 0.2733103398031776 -0.4283580885617 -0.4262828049515004 -0.44730994251778133 -0.18517976861226837 -0.3655927055141025 47.63758125307706 29.65435228168839 16.226979015008702 -24.332002503036826 -30.225096549112997 65.82077084260702 -5.202688706374351 -11.335510866373745 -5.303363560306223 -0.3379601080097581 0.24782111435732135 -0.5187734647516843 0.4218215441651449 -0.5508445646386262 -0.6535046023805922 0.43136006342362637 -0.4073237205998524 -0.3813299949703408 8.053825243783352 5.708952572939451 0.0858202597041524 -0.6109021512062839 -0.3967974385935107 0.2214741532218864 3.1198028821850987 0.6180474895734692 0.6847812125288442 0.16038564831659316 0.010792979549089523 -0.3296520099776574 10.43842955191604 1.174239398641128 0.04745145859819421 0.21729455769751463 -0.23877066013980489 -0.5678502949289299 1.4645801748094975 -1.1924028993566016 -0.054933157101576265 -0.2784924790316603 -0.009394658399088086 -0.04184184557720389 -55.558063275015186 31.00480362400497 -26.05244177759841 23.182987099722258 -28.54212256969622 -62.718826770667384 5.036527706227688 -13.854210570934 4.343216121034027 -0.18920307019852323 -0.07610250134081098 -0.6015693913965491 -0.40652240067199236 -0.4401632167684208 -0.020901712881561285 -0.12177728366158207 0.08319980160018148 0.13422901200320622 -8.0664209663865 5.5940717793075985 -0.399523057598316 -0.2901311747382149 -0.09398329625766967 0.023975458090625696 -2.6172132305066422 1.534153228747188 0.40733263186228513 0.27521863062425567 0.12537591290010608 0.0658373673485165 -10.043741948084975 1.2056178212966955 0.07103380728557394 0.2111999345443873 0.4727978606227417 0.2175180462896342 -2.187756975592451 -1.0637252303230291 0.10230139944968739 0.10015021002625071 -0.011062024969364558 -0.3391141965360787 -32.080599399417 -36.31710619438745 -27.645923203415094 -5.624836658876628 62.13130755864123 5.784364691565561 -4.444347743866644 -9.902916254004007 -10.755171890712564 0.17117980180444628 0.44270511435672333 -0.1417459019890697 37.36100498637552 -33.07183743290427 30.252864683183684 4.603886448726156 62.3560549332805 -6.049372616267472 5.1363551898156565 -10.291779414020342 13.968165447046495
